PathFileType	4	(X/Y/Z)	Patient4_TMGait_0pt4_03_left_25.trc.trc
DataRate	CameraRate	NumFrames	NumMarkers	Units	OrigDataRate	OrigDataStartFrame	OrigNumFrames
72.538860103627	72.538860103627	4	33	mm	72.538860103627	106	       141
Frame#	Time	Sacral			L.Shoulder			Chest			R.Shoulder			Neck			R.ASIS			L.ASIS			R.Thigh.Superior			R.Thigh.Lateral			R.Thigh.Inferior			R.Patella			L.Thigh.Superior			L.Thigh.Lateral			L.Thigh.Inferior			L.Patella			L.Shank.Superior			L.Shank.Lateral			L.Shank.Inferior			R.Shank.Superior			R.Shank.Lateral			R.Shank.Inferior			R.Heel			R.Midfoot.Superior			R.Midfoot.Lateral			R.Toe			L.Heel			L.Midfoot.Lateral			L.Midfoot.Superior			L.Toe			L.Elbow			L.Wrist			R.Elbow			R.Wrist			
		X1	Y1	Z1	X2	Y2	Z2	X3	Y3	Z3	X4	Y4	Z4	X5	Y5	Z5	X6	Y6	Z6	X7	Y7	Z7	X8	Y8	Z8	X9	Y9	Z9	X10	Y10	Z10	X11	Y11	Z11	X12	Y12	Z12	X13	Y13	Z13	X14	Y14	Z14	X15	Y15	Z15	X16	Y16	Z16	X17	Y17	Z17	X18	Y18	Z18	X19	Y19	Z19	X20	Y20	Z20	X21	Y21	Z21	X22	Y22	Z22	X23	Y23	Z23	X24	Y24	Z24	X25	Y25	Z25	X26	Y26	Z26	X27	Y27	Z27	X28	Y28	Z28	X29	Y29	Z29	X30	Y30	Z30	X31	Y31	Z31	X32	Y32	Z32	X33	Y33	Z33	

106	34.297500000000	840.991660325209	1009.363344737985	497.384558071704	999.371967740548	1434.885471302372	300.410632192099	1119.744631766300	1368.955766939730	449.942245451292	1056.748445792973	1442.990294039993	632.131330594915	998.751373021966	1499.163219009748	454.657317709852	1078.957471821916	941.816459589500	592.068272460973	1038.935834527954	969.050836480650	320.853914753624	1101.482264660959	736.198389854106	555.152563803694	1017.628089635267	631.095146970836	620.819894701808	1082.973411717645	575.786942073554	534.146518700534	1076.659323453953	490.675055942036	538.718765231064	1129.862513291415	797.439564026753	336.847221970641	1091.059602128175	671.633585312151	252.442295940325	1203.126810787532	617.485406622377	304.323739057255	1226.041802889381	534.293251901617	290.530751835294	1175.072897026565	459.885421738637	281.808375243897	1046.544204117962	383.590638727150	241.659867732380	1077.444080442811	252.141627156943	283.934373013905	1047.617462145700	402.705363535123	546.789340904321	977.136451886193	299.436029749370	610.245314594604	1012.625108912962	204.803347173049	542.218266241877	876.033236807572	41.783472813040	512.528454603359	1045.811618210775	95.321733351588	547.418991680050	959.232909369551	36.537223351406	587.514398121040	1167.266872977020	44.616903696694	575.840218125893	919.704548468454	140.297739016342	334.868760854681	974.868691940936	111.750177399975	246.170287632033	1077.094880294863	142.907848488568	257.089515885514	1172.842483937349	52.926104357186	213.162295977888	900.770335343549	1090.678911093708	206.461742564151	928.546787381636	829.254102387634	205.149175211377	1135.059864475771	1120.954957797029	779.416863283704	1378.702936914417	1100.044776979169	711.996970676347	
107	34.311285714286	839.952563471458	1010.000900677008	499.298943724480	998.069172234644	1434.892661189575	301.280045148261	1119.789230233311	1368.406966519242	449.452355742974	1059.055410990966	1442.761343192166	632.296826512213	999.306995865397	1499.041423768827	455.360674745760	1078.380042096106	941.327594881025	591.731912052095	1036.262286697172	969.009216570377	320.792469718358	1098.746752950927	735.529106340673	554.734424913042	1014.676895237411	630.954161671614	621.232184713274	1078.889922330519	575.190955675318	534.171672225154	1072.011884181921	490.283644188763	538.944490986358	1126.772913295850	797.773675327406	337.323858446964	1088.875326548680	671.929095516870	252.830407088515	1200.306762802676	617.970117306483	305.998983024202	1224.428770066401	536.324125884708	291.676532382730	1176.900233820715	461.412503729264	282.104404175529	1053.311065552182	378.143765497462	240.996168178242	1091.935369164366	248.237124438327	282.486191441829	1042.775715392487	402.467057625060	547.076275676416	972.209811943423	299.307953266334	610.797977250804	1007.271310231289	204.680471292360	542.443268508811	870.437499411308	41.758187163289	512.584809678442	1040.277579792534	95.316941083261	547.589964245836	953.655295895399	36.495820840502	587.588243518569	1161.690316613121	44.559327998130	575.857536784000	941.538322507475	125.470477115979	332.408061637981	998.473544289108	102.103231225275	243.298627524711	1098.385969846642	139.916922853900	254.686436956792	1200.092858683438	57.492190201686	209.518922787287	894.734408707639	1091.805344841921	209.251182872233	918.125159800685	829.938742062142	209.582821188765	1142.471539090509	1122.309818149040	778.734664718373	1385.239436041637	1113.688031523679	707.372596672256	
108	34.325071428571	838.889109184030	1010.523985446615	501.004892312097	996.846979058617	1434.820855982746	301.999535827001	1119.843135030982	1367.727662772338	448.831050396040	1061.333918962138	1442.362422500670	632.310946258966	999.923952969187	1498.792019344656	455.999879818967	1077.786416007086	940.796943682558	591.259289458403	1033.667321114383	968.763257465795	320.563542962771	1096.107760347851	734.859648414067	554.303452437079	1011.843239498611	630.765739389366	621.581414001876	1074.973765611992	574.586859733960	534.174355873813	1067.547958643069	489.856801878423	539.162428861984	1123.454433915079	797.593226108778	337.714656341087	1086.247834080131	671.759386910635	253.137378281009	1196.885671748421	617.790719630924	307.704793852793	1222.160261177473	537.845442217927	292.949121483003	1178.185671586079	462.620503803611	282.573584230108	1060.147985067270	372.542427813216	240.103267840613	1106.286956625500	244.663064849106	281.186684612206	1038.084105431591	402.182759095885	547.328680834345	967.397483376885	299.162032365355	611.315533006168	1001.987801206600	204.525690916236	542.640656245715	864.842317415899	41.741778840802	512.642670514300	1034.745397958847	95.301423933519	547.740804117721	948.081907740947	36.455140188698	587.658884682227	1156.121834207609	44.491169663460	575.875838446504	963.722909102559	111.536219095752	329.658345290130	1022.433604190882	93.265254098863	240.448228506253	1119.593770124737	137.517807296389	252.635732798775	1226.875737387243	62.783069468131	206.842370972323	889.060515350637	1092.877796824675	211.775552302421	908.501585952805	830.685367179141	213.373283265939	1149.698569172188	1123.411576566892	777.700004585079	1391.042731768845	1126.341468070360	702.679037589169	
109	34.338857142857	837.832818687166	1010.932239545683	502.491188844796	995.717562551133	1434.685317510625	302.550934007849	1119.897976846447	1366.947642723510	448.085249519520	1063.534495811108	1441.819702000217	632.167661694173	1000.584995455671	1498.434867937070	456.559944222288	1077.188417248633	940.249491779117	590.681480561403	1031.190121171235	968.337939819322	320.190943193583	1093.601548822775	734.195403462976	553.892473192799	1009.127450074408	630.539208321311	621.863100644328	1071.243748256038	573.977104697763	534.164026847321	1063.280933574030	489.396025626751	539.365820112011	1119.975125966765	796.945919442210	338.017835230890	1083.202229756021	671.163638805180	253.359004154410	1192.968237018778	617.017075157915	309.317438622338	1219.320285734988	538.892776613207	294.287172355245	1178.944810810266	463.544821835799	283.206085332226	1066.947103983335	366.991521492418	239.024641368411	1120.206239057344	241.575325777764	280.113103619715	1033.550343094325	401.858294580979	547.540426605664	962.697218774364	299.007528104185	611.779251674210	996.779812014262	204.342714345557	542.807231836785	859.251303685949	41.735949456223	512.702901080514	1029.214396830031	95.275318997154	547.867775122074	942.513341114290	36.417607104589	587.725840798765	1150.561883075017	44.413617075953	575.897852591254	985.756766436170	98.885951484036	326.750798069304	1046.265763576938	85.474316756226	237.780278581348	1140.300868679147	135.827148687864	251.061100351310	1252.689697987641	68.715540236604	205.351707191867	883.759226497939	1093.887525603732	214.013012485375	899.704711761313	831.461395720646	216.478563967527	1156.701304526471	1124.269497240202	776.301540174903	1396.209409822546	1137.893190272744	697.956729529658	
